# xmcd
#
# Track frame offsets:
#	150
#	83543
#	113853
#	127992
#	155736
#	170247
#	193986
#	206325
#	232413
#	250684
#	280614
#
# Disc length: 4653 seconds
#
# Revision: 0
# Processed by: cddbd v1.5.2PL0 Copyright (c) Steve Scherf et al.
# Submitted via: audiograbber 1.83.01
#
DISCID=9a122b0b
DTITLE=Van Morrison - Christmas Special-Disc 2
DYEAR=1989
DGENRE=Celtic
TTITLE0=Van Morrison - See Me Through > Soldier Of Fortune > Thank You (Falleti
TTITLE0=nme Be Mice Elf Agin) > Burning Ground
TTITLE1=Van Morrison - Have I Told You Lately
TTITLE2=Van Morrison - Days Like This
TTITLE3=Van Morrison - Fire In The Belly
TTITLE4=Van Morrison - Into The Mystic
TTITLE5=Van Morrison - Sometimes We Cry
TTITLE6=Van Morrison - Enlightenment
TTITLE7=Van Morrison - It Once Was My Life
TTITLE8=Van Morrison - If You Love Me
TTITLE9=Van Morrison - The Healing Game
TTITLE10=Van Morrison - I'll Take Care Of You > When The Clock Strikes > It's a
TTITLE10=Man's World > Hustle Time > No Prima Donna
EXTD=
EXTT0=
EXTT1=
EXTT2=
EXTT3=
EXTT4=
EXTT5=
EXTT6=
EXTT7=
EXTT8=
EXTT9=
EXTT10=
PLAYORDER=
